<svg aria-hidden="true" style="position: absolute; width: 0; height: 0; overflow: hidden;" version="1.1" xmlns="http://www.w3.org/2000/svg" xmlns:xlink="http://www.w3.org/1999/xlink">
<defs>
<symbol id="icon-in" viewBox="0 0 96 96">
<path d="M81.789 81.808h-14.214v-22.275c0-5.312-0.109-12.147-7.408-12.147-7.411 0-8.544 5.779-8.544 11.757v22.669h-14.215v-45.811h13.658v6.243h0.185c1.907-3.6 6.547-7.402 13.478-7.402 14.403 0 17.069 9.482 17.069 21.821v25.145h-0.010zM21.347 29.731c-4.576 0-8.253-3.706-8.253-8.259s3.68-8.253 8.253-8.253c4.573 0 8.256 3.699 8.256 8.253s-3.699 8.259-8.256 8.259zM28.477 81.808h-14.256v-45.808h14.256v45.808zM88.899 0h-81.814c-3.917 0-7.085 3.098-7.085 6.915v82.169c0 3.824 3.168 6.915 7.085 6.915h81.805c3.91 0 7.11-3.091 7.11-6.915v-82.169c0-3.821-3.2-6.915-7.11-6.915h0.010z"></path>
</symbol>
<symbol id="icon-twitter" viewBox="0 0 96 96">
<path d="M95.811 18.748c-3.594 1.558-7.402 2.586-11.299 3.053 4.106-2.429 7.177-6.237 8.653-10.72-3.805 2.186-8.019 3.776-12.509 4.662-2.96-3.117-6.883-5.184-11.162-5.882s-8.669 0.016-12.49 2.029c-3.824 2.013-6.864 5.21-8.653 9.098s-2.221 8.246-1.232 12.4c-16.362-0.759-30.851-8.496-40.56-20.182-1.766 2.954-2.685 6.32-2.666 9.744 0 6.733 3.482 12.65 8.752 16.128-3.123-0.099-6.179-0.928-8.912-2.425v0.237c0 4.474 1.568 8.81 4.445 12.275 2.877 3.463 6.883 5.843 11.338 6.73-2.886 0.762-5.91 0.877-8.848 0.336 1.264 3.85 3.718 7.216 7.021 9.629s7.286 3.751 11.395 3.824c-6.963 5.379-15.558 8.298-24.406 8.288-1.558 0-3.117-0.090-4.678-0.263 9.024 5.686 19.514 8.704 30.227 8.698 36.211 0 55.99-29.514 55.99-55.062 0-0.826 0-1.654-0.061-2.48 3.862-2.736 7.197-6.134 9.84-10.032l-0.189-0.080 0.003-0.003z"></path>
</symbol>
<symbol id="icon-tick" viewBox="0 0 109 96">
<path d="M107.457 11.501l-72.086 79.087-34.029-38.001 12.908-11.389 21.235 23.714 59.165-64.913 12.806 11.501z"></path>
</symbol>
<symbol id="icon-menu" viewBox="0 0 32 32">
<path d="M2.667 7.993c0-0.733 0.595-1.327 1.327-1.327h10.68c0.352 0 0.689 0.14 0.938 0.389s0.389 0.586 0.389 0.938c0 0.352-0.14 0.689-0.389 0.938s-0.586 0.389-0.938 0.389h-10.68c-0.352 0-0.689-0.14-0.938-0.389s-0.389-0.586-0.389-0.938zM2.667 16c0-0.733 0.595-1.327 1.327-1.327h24.013c0.352 0 0.689 0.14 0.938 0.389s0.389 0.586 0.389 0.938c0 0.352-0.14 0.689-0.389 0.938s-0.586 0.389-0.938 0.389h-24.013c-0.352 0-0.689-0.14-0.938-0.389s-0.389-0.586-0.389-0.938zM3.993 22.68c-0.352 0-0.689 0.14-0.938 0.389s-0.389 0.586-0.389 0.938c0 0.352 0.14 0.689 0.389 0.938s0.586 0.389 0.938 0.389h16.013c0.352 0 0.689-0.14 0.938-0.389s0.389-0.586 0.389-0.938c0-0.352-0.14-0.689-0.389-0.938s-0.586-0.389-0.938-0.389h-16.013z"></path>
</symbol>
<symbol id="icon-x" viewBox="0 0 32 32">
<path stroke-linejoin="round" stroke-linecap="round" stroke-miterlimit="4" stroke-width="2.0800" d="M24 8l-16 16"></path>
<path stroke-linejoin="round" stroke-linecap="round" stroke-miterlimit="4" stroke-width="2.0800" d="M8 8l16 16"></path>
</symbol>

</defs>
</svg>
